Coordinates
version=1
nRows=43
nColumns=12
inDegrees=yes

Units are S.I. units (second, meters, Newtons, ...)
Angles are in degrees

endheader
time	SC_y	SC_z	SC_x	AC_y	AC_z	AC_x	GH_y	GH_z	GH_yy	EL_x	PS_y
       0.0              -25.44          38.65          26.44          57.03          9.677         -1.296          133.7          22.33         -165.8          59.12          106.4
  0.009149              -25.44          38.64          26.45          57.03          9.676         -1.299          133.7          22.33         -165.8          59.13          106.4
    0.0183              -25.43          38.64          26.46          57.03          9.676         -1.301          133.7          22.32         -165.8          59.14          106.4
   0.02745              -25.43          38.64          26.47          57.03          9.676         -1.304          133.6          22.32         -165.8          59.14          106.4
    0.0366              -25.43          38.64          26.48          57.03          9.675         -1.308          133.6          22.32         -165.8          59.15          106.4
   0.04575              -25.43          38.64          26.49          57.04          9.675         -1.311          133.6          22.32         -165.8          59.16          106.5
   0.05489              -25.43          38.63           26.5          57.04          9.674         -1.315          133.6          22.32         -165.8          59.17          106.5
   0.06404              -25.43          38.63          26.51          57.04          9.674         -1.318          133.5          22.31         -165.8          59.18          106.5
   0.07319              -25.43          38.63          26.52          57.04          9.673         -1.323          133.5          22.31         -165.8          59.19          106.5
   0.08234              -25.43          38.63          26.54          57.04          9.672         -1.327          133.5          22.31         -165.8           59.2          106.5
   0.09149              -25.43          38.62          26.55          57.04          9.672         -1.332          133.5          22.31         -165.8          59.21          106.5
    0.1006              -25.43          38.62          26.57          57.04          9.671         -1.337          133.4           22.3         -165.8          59.22          106.5
    0.1098              -25.43          38.62          26.59          57.04           9.67         -1.342          133.4           22.3         -165.8          59.23          106.5
    0.1189              -25.43          38.61           26.6          57.05           9.67         -1.348          133.4           22.3         -165.8          59.25          106.5
    0.1281              -25.43          38.61          26.62          57.05          9.669         -1.355          133.3          22.29         -165.8          59.26          106.5
    0.1372              -25.43          38.61          26.65          57.05          9.668         -1.362          133.3          22.29         -165.8          59.28          106.5
    0.1464              -25.43           38.6          26.67          57.05          9.667          -1.37          133.2          22.29         -165.8           59.3          106.5
    0.1555              -25.43           38.6          26.69          57.05          9.666         -1.378          133.2          22.28         -165.8          59.32          106.5
    0.1647              -25.43          38.59          26.72          57.06          9.664         -1.387          133.1          22.28         -165.8          59.34          106.6
    0.1738              -25.43          38.58          26.75          57.06          9.663         -1.397          133.0          22.27         -165.8          59.36          106.6
     0.183              -25.42          38.58          26.79          57.06          9.661         -1.408          133.0          22.26         -165.8          59.39          106.6
    0.1921              -25.42          38.57          26.82          57.07           9.66          -1.42          132.9          22.26         -165.8          59.42          106.6
    0.2013              -25.42          38.56          26.86          57.07          9.658         -1.433          132.8          22.25         -165.8          59.45          106.6
    0.2104              -25.42          38.55          26.91          57.07          9.656         -1.448          132.7          22.24         -165.8          59.48          106.6
    0.2196              -25.42          38.54          26.96          57.08          9.654         -1.464          132.6          22.23         -165.8          59.52          106.7
    0.2287              -25.42          38.53          27.01          57.08          9.651         -1.482          132.5          22.22         -165.8          59.57          106.7
    0.2379              -25.41          38.52          27.08          57.09          9.649         -1.503          132.3          22.21         -165.9          59.61          106.7
     0.247              -25.41           38.5          27.15           57.1          9.645         -1.526          132.2           22.2         -165.9          59.67          106.8
    0.2562              -25.41          38.49          27.23           57.1          9.642         -1.552          132.0          22.18         -165.9          59.73          106.8
    0.2653              -25.41          38.47          27.32          57.11          9.638         -1.581          131.8          22.16         -165.9           59.8          106.8
    0.2745               -25.4          38.45          27.42          57.12          9.633         -1.615          131.6          22.15         -165.9          59.88          106.9
    0.2836               -25.4          38.42          27.54          57.13          9.628         -1.653          131.3          22.12         -165.9          59.97          106.9
    0.2928              -25.39           38.4          27.68          57.14          9.622         -1.698          131.0           22.1         -165.9          60.08          107.0
    0.3019              -25.39          38.36          27.83          57.16          9.615          -1.75          130.7          22.07         -165.9           60.2          107.1
    0.3111              -25.38          38.33          28.02          57.18          9.607          -1.81          130.3          22.03         -165.9          60.34          107.2
    0.3202              -25.38          38.28          28.24           57.2          9.597         -1.882          129.8          21.99         -166.0          60.51          107.3
    0.3294              -25.37          38.23           28.5          57.22          9.585         -1.967          129.3          21.95         -166.0          60.72          107.4
    0.3385              -25.36          38.17          28.81          57.25          9.571         -2.068          128.6          21.89         -166.0          60.96          107.5
    0.3477              -25.35          38.09          29.19          57.28          9.555         -2.191          127.8          21.82         -166.0          61.25          107.7
    0.3568              -25.33           38.0          29.65          57.33          9.534         -2.342          126.8          21.73         -166.1          61.61          107.9
     0.366              -25.31          37.88          30.22          57.38          9.509         -2.527          125.6          21.63         -166.1          62.05          108.2
    0.3751              -25.29          37.74          30.93          57.44          9.477         -2.759          124.0           21.5         -166.2           62.6          108.5
    0.3843              -25.26          37.56          31.82          57.53          9.437          -3.05          122.1          21.33         -166.3          63.29          109.0
